<svg viewBox="0 0 82 82">
  <defs/>
  <g id="Layer_2" data-name="Layer 2">
    <g id="Icons">
      <path d="M41 82a41 41 0 1 1 41-41 41 41 0 0 1-41 41zm0-80a39 39 0 1 0 39 39A39 39 0 0 0 41 2z" class="cls-1"/>
      <path d="M46.44 26.15l.39-.59.39-.58.87-1.3a.35.35 0 1 0-.58-.39l-.93 1.4-.39.58-.4.6a11.67 11.67 0 0 0-8.3 0l-.4-.6-.39-.58-.93-1.4a.35.35 0 1 0-.58.39l.87 1.3.39.58.39.59c-3 1.38-5 4-5 7H51.4c0-3.02-2-5.63-4.96-7zm-9 4.18a1 1 0 1 1 1-1 1 1 0 0 1-.98 1zm8.37 0a1 1 0 1 1 1-1 1 1 0 0 1-.98 1zM32 34.51h-.15v15.33A2.21 2.21 0 0 0 34.09 52h1.59a2 2 0 0 0-.08.58V57a2.09 2.09 0 1 0 4.18 0v-4.37a1.94 1.94 0 0 0-.08-.63h3.89a2 2 0 0 0-.08.58V57a2.09 2.09 0 1 0 4.19 0v-4.37a2 2 0 0 0-.1-.63h1.6a2.21 2.21 0 0 0 2.21-2.21V34.51H32zM28.39 34.51a2.09 2.09 0 0 0-2.09 2.09v8.94a2.09 2.09 0 0 0 4.18 0V36.6a2.09 2.09 0 0 0-2.09-2.09zM54.89 34.51a2.09 2.09 0 0 0-2.09 2.09v8.94a2.09 2.09 0 0 0 4.18 0V36.6a2.09 2.09 0 0 0-2.09-2.09z" class="cls-1"/>
    </g>
  </g>
</svg>
