<svg viewBox="0 0 512 512">
  <path d="M437.022 74.984C388.67 26.63 324.381 0 256 0 187.624 0 123.338 26.63 74.984 74.984S0 187.624 0 256c0 68.388 26.63 132.678 74.984 181.028C123.335 485.375 187.621 512 256 512c68.385 0 132.673-26.625 181.021-74.972C485.372 388.679 512 324.389 512 256c0-68.377-26.628-132.664-74.978-181.016zm-11.314 350.73C380.381 471.039 320.111 496 256 496c-64.106 0-124.374-24.961-169.703-70.286C40.965 380.386 16 320.113 16 256c0-64.102 24.965-124.37 70.297-169.703C131.63 40.965 191.898 16 256 16c64.108 0 124.378 24.965 169.708 70.297C471.037 131.628 496 191.896 496 256c0 64.115-24.963 124.387-70.292 169.714z"/>
  <path d="M430.038 114.969c-2.783-3.432-7.821-3.957-11.253-1.172-3.431 2.784-3.956 7.822-1.172 11.252C447.526 161.919 464 208.426 464 256c0 55.567-21.635 107.803-60.919 147.085C363.797 442.367 311.563 464 256 464c-51.26 0-100.505-18.807-138.663-52.956-3.292-2.946-8.35-2.665-11.296.626-2.946 3.292-2.666 8.35.626 11.296C147.763 459.745 200.797 480 256 480c59.837 0 116.089-23.297 158.394-65.601C456.701 372.095 480 315.84 480 256c0-51.233-17.744-101.319-49.962-141.031zM48 256c0-114.691 93.309-208 208-208 51.26 0 100.504 18.808 138.662 52.959 3.293 2.948 8.35 2.667 11.296-.625 2.947-3.292 2.667-8.35-.625-11.296C364.237 52.256 311.203 32 256 32c-59.829 0-116.08 23.301-158.389 65.611C55.301 139.921 32 196.171 32 256c0 51.239 17.744 101.328 49.963 141.038 1.581 1.949 3.889 2.96 6.217 2.96 1.771 0 3.553-.585 5.036-1.788 3.431-2.784 3.956-7.822 1.172-11.253C64.474 350.088 48 303.58 48 256z"/>
  <path d="M209.927 136.582c-.268.086-.531.186-.791.301C161.67 155.623 128 201.953 128 256c0 70.58 57.42 128 128 128s128-57.42 128-128-57.42-128-128-128c-16.235 0-31.77 3.045-46.073 8.582zm119.479 34.897c-.019.028-.042.053-.061.082-14.464 21.682-36.655 36.11-60.839 45.683-1.448-2.758-2.879-5.434-4.281-8.002-15.053-27.576-29.78-49.227-38.54-61.069C235.33 145.456 245.498 144 256 144c28.056 0 53.734 10.371 73.406 27.479zm-119.454-17.571c6.959 9.093 23.375 32.056 40.478 63.455.924 1.697 1.863 3.45 2.81 5.233-43.82 13.544-90.157 13.417-107.33 12.788 6.795-36.37 31.22-66.613 64.042-81.476zM144 256c0-1.558.041-3.107.104-4.65 3.632.161 8.663.311 14.807.311 14.905 0 36.296-.885 59.775-4.657 15.02-2.413 29.047-5.731 41.972-9.904 3.056 6.201 6.141 12.767 9.183 19.649-31.713 9.54-67.171 30.874-95.311 76.021C155.613 312.706 144 285.685 144 256zm42.537 87.793c22.714-37.666 52.739-61.893 89.538-72.304 10.626 26.327 19.965 56.255 24.418 87.284C286.847 364.704 271.802 368 256 368c-26.218 0-50.359-9.059-69.463-24.207zm128.932 7.071c-4.773-29.453-13.578-57.733-23.582-82.913 3.775-.639 7.605-1.162 11.507-1.537 28.523-2.736 52.723 2.696 63.438 5.727-4.803 33.132-24.162 61.61-51.363 78.723zm52.529-95.016c-13.003-3.418-37.054-8.042-65.462-5.424-5.374.495-11.046 1.275-16.933 2.425-3.239-7.438-6.538-14.535-9.809-21.231 3.617-1.465 7.134-3.002 10.536-4.619 23.445-11.144 41.769-25.941 54.543-43.997 16.867 19.584 27.088 45.043 27.125 72.846z"/>
</svg>
