<svg viewBox="0 0 512 512">
  <path d="M437.022 74.984C388.67 26.63 324.381 0 256 0 187.624 0 123.338 26.63 74.984 74.984S0 187.624 0 256c0 68.388 26.63 132.678 74.984 181.028C123.335 485.374 187.621 512 256 512c68.385 0 132.673-26.626 181.021-74.972C485.372 388.679 512 324.389 512 256c0-68.377-26.628-132.664-74.978-181.016zm-11.314 350.73C380.381 471.039 320.111 496 256 496c-64.106 0-124.374-24.961-169.703-70.286C40.965 380.386 16 320.113 16 256c0-64.102 24.965-124.37 70.297-169.703C131.63 40.965 191.898 16 256 16c64.108 0 124.378 24.965 169.708 70.297C471.037 131.628 496 191.896 496 256c0 64.115-24.963 124.387-70.292 169.714z"/>
  <path d="M430.038 114.969c-2.784-3.431-7.821-3.957-11.253-1.172-3.431 2.784-3.956 7.822-1.172 11.252C447.526 161.919 464 208.426 464 256c0 55.567-21.635 107.803-60.919 147.085C363.797 442.367 311.563 464 256 464c-51.26 0-100.505-18.807-138.663-52.956-3.292-2.946-8.35-2.666-11.296.626s-2.666 8.35.626 11.296C147.763 459.745 200.797 480 256 480c59.837 0 116.089-23.297 158.394-65.601C456.701 372.095 480 315.84 480 256c0-51.233-17.744-101.319-49.962-141.031zM48 256c0-114.691 93.309-208 208-208 51.26 0 100.504 18.808 138.662 52.959 3.293 2.948 8.351 2.666 11.296-.625 2.947-3.292 2.667-8.35-.625-11.296C364.237 52.256 311.203 32 256 32c-59.829 0-116.08 23.301-158.389 65.611C55.301 139.921 32 196.171 32 256c0 51.239 17.744 101.328 49.963 141.038 1.581 1.949 3.889 2.96 6.217 2.96 1.771 0 3.553-.585 5.036-1.788 3.431-2.784 3.956-7.822 1.172-11.253C64.474 350.088 48 303.58 48 256z"/>
  <path d="M401.753 189.305c-.125-2.563-1.471-4.911-3.621-6.312l-80.534-52.524c-2.943-1.92-6.795-1.693-9.494.557l-51.22 42.718-51.226-42.719c-2.699-2.251-6.552-2.477-9.494-.557l-80.536 52.524c-2.149 1.401-3.496 3.749-3.621 6.312s.988 5.03 2.991 6.633l47.882 38.339-47.881 38.319c-2.003 1.604-3.116 4.07-2.992 6.633s1.47 4.911 3.619 6.313l52.818 34.461c-.056.382-.094.769-.094 1.166v22.119c0 2.812 1.476 5.417 3.887 6.862l80.7 48.366c1.266.759 2.689 1.138 4.113 1.138s2.847-.379 4.113-1.138l80.7-48.366c2.411-1.445 3.887-4.05 3.887-6.862v-22.119c0-.467-.048-.922-.125-1.367l52.508-34.26c2.149-1.402 3.495-3.75 3.619-6.313.124-2.563-.989-5.03-2.992-6.633l-47.879-38.319 47.881-38.339c2.004-1.603 3.116-4.07 2.991-6.632zm-144.868 85.692l-65.97-40.718 65.97-40.717 65.965 40.717-65.965 40.718zm-56.932-127.896l43.275 36.088-66.947 41.32-42.653-34.152 66.325-43.256zm-23.673 96.947l66.949 41.322-43.274 36.087-66.326-43.275 42.651-34.134zm153.471 94.708l-72.7 43.572-72.7-43.572v-8.375l11.813 7.707c1.334.87 2.855 1.3 4.371 1.3 1.828 0 3.649-.625 5.125-1.856l51.226-42.718 51.22 42.717c1.476 1.231 3.297 1.856 5.125 1.856 1.516 0 3.037-.43 4.371-1.3l12.15-7.928v8.597zm-15.94-17.299l-43.27-36.086 66.944-41.322 42.65 34.133-66.324 43.275zm23.672-96.948l-66.942-41.32 43.27-36.088 66.324 43.256-42.652 34.152z"/>
</svg>
