<svg viewBox="0 0 512 512">
  <path d="M437.022 74.984C388.67 26.63 324.381 0 256 0 187.624 0 123.338 26.63 74.984 74.984S0 187.624 0 256c0 68.388 26.63 132.678 74.984 181.028C123.335 485.375 187.621 512 256 512c68.385 0 132.673-26.625 181.021-74.972C485.372 388.679 512 324.389 512 256c0-68.377-26.628-132.664-74.978-181.016zm-11.314 350.73C380.381 471.039 320.111 496 256 496c-64.106 0-124.374-24.961-169.703-70.286C40.965 380.386 16 320.113 16 256c0-64.102 24.965-124.37 70.297-169.703C131.63 40.965 191.898 16 256 16c64.108 0 124.378 24.965 169.708 70.297C471.037 131.628 496 191.896 496 256c0 64.115-24.963 124.387-70.292 169.714z"/>
  <path d="M430.038 114.969c-2.783-3.432-7.821-3.956-11.253-1.172-3.431 2.784-3.956 7.822-1.172 11.252C447.526 161.919 464 208.426 464 256c0 55.567-21.635 107.803-60.919 147.085C363.797 442.367 311.563 464 256 464c-51.26 0-100.505-18.807-138.663-52.956-3.292-2.946-8.35-2.666-11.296.626-2.946 3.292-2.666 8.35.626 11.296C147.763 459.745 200.797 480 256 480c59.837 0 116.089-23.297 158.394-65.601C456.701 372.095 480 315.84 480 256c0-51.233-17.744-101.319-49.962-141.031zM48 256c0-114.691 93.309-208 208-208 51.26 0 100.504 18.808 138.662 52.959 3.293 2.948 8.351 2.666 11.296-.625 2.947-3.292 2.667-8.35-.625-11.296C364.237 52.256 311.203 32 256 32c-59.829 0-116.08 23.301-158.389 65.611C55.301 139.921 32 196.171 32 256c0 51.239 17.744 101.328 49.963 141.038 1.581 1.949 3.889 2.96 6.217 2.96 1.771 0 3.553-.585 5.036-1.788 3.431-2.784 3.956-7.822 1.172-11.253C64.474 350.088 48 303.58 48 256z"/>
  <path d="M325.685 373.042h49.577c4.418 0 8-3.582 8-8v-85.508c0-24.007-6.204-42.903-18.439-56.162-11.438-12.395-27.571-18.947-46.653-18.947-16.595 0-28.251 5.056-36.677 11.636v-.138c0-4.418-3.582-8-8-8H223.93c-2.185 0-4.274.894-5.784 2.473-1.509 1.58-2.307 3.708-2.208 5.891.62 13.618-.002 147.368-.008 148.718-.01 2.128.829 4.173 2.33 5.681 1.501 1.508 3.542 2.356 5.67 2.356h49.562c4.418 0 8-3.582 8-8V281.76c0-4.336.347-7.376 1.053-9.092 1.594-3.953 6.54-13.146 18.02-13.146 4.683 0 17.121 0 17.121 25.734v79.785c-.001 4.419 3.58 8.001 7.999 8.001zm-25.121-129.52c-14.727 0-27.01 8.659-32.835 23.106-1.547 3.754-2.237 8.421-2.237 15.131v75.282h-33.526c.111-25.855.418-105.46.123-133.119h33.403v13.117c0 3.544 2.332 6.666 5.731 7.671 3.398 1.005 7.054-.347 8.982-3.32 6.721-10.367 16.487-20.966 37.964-20.966 31.199 0 49.093 21.544 49.093 59.108v77.508h-33.577v-71.785c0-12.136-2.428-21.855-7.216-28.887-5.723-8.404-14.681-12.846-25.905-12.846zM207.747 169.605c-.41-19.786-15.099-33.605-35.72-33.605C151.151 136 136 150.203 136 169.771s14.877 33.771 35.375 33.771h.333c20.883 0 36.041-14.203 36.041-33.771 0-.055-.001-.11-.002-.166zm-36.039 17.937h-.333c-11.589 0-19.375-7.142-19.375-17.771 0-10.629 8.048-17.771 20.026-17.771 11.906 0 19.456 6.838 19.722 17.853-.041 10.584-8.084 17.689-20.04 17.689zM146.919 207.922c-4.418 0-8 3.582-8 8v149.119c0 4.418 3.582 8 8 8h49.591c4.418 0 8-3.582 8-8V215.922c0-4.418-3.582-8-8-8h-49.591zm41.592 149.12H154.92v-133.12h33.591v133.12z"/>
</svg>
