<svg viewBox="0 0 512 512">
  <path d="M437.022 74.984C388.67 26.63 324.381 0 256 0 187.624 0 123.338 26.63 74.984 74.984S0 187.624 0 256c0 68.388 26.63 132.678 74.984 181.028C123.335 485.375 187.621 512 256 512c68.385 0 132.673-26.625 181.021-74.972C485.372 388.679 512 324.389 512 256c0-68.377-26.628-132.664-74.978-181.016zm-11.314 350.73C380.381 471.039 320.111 496 256 496c-64.106 0-124.374-24.961-169.703-70.286C40.965 380.386 16 320.113 16 256c0-64.102 24.965-124.37 70.297-169.703C131.63 40.965 191.898 16 256 16c64.108 0 124.378 24.965 169.708 70.297C471.037 131.628 496 191.896 496 256c0 64.115-24.963 124.387-70.292 169.714z"/>
  <path d="M430.038 114.969c-2.784-3.431-7.821-3.957-11.253-1.172-3.431 2.784-3.956 7.822-1.172 11.252C447.526 161.919 464 208.426 464 256c0 55.567-21.635 107.803-60.919 147.085C363.797 442.367 311.563 464 256 464c-51.26 0-100.505-18.807-138.663-52.956-3.292-2.946-8.35-2.665-11.296.626-2.946 3.292-2.666 8.35.626 11.296C147.763 459.745 200.797 480 256 480c59.837 0 116.089-23.297 158.394-65.601C456.701 372.095 480 315.84 480 256c0-51.233-17.744-101.319-49.962-141.031zM48 256c0-114.691 93.309-208 208-208 51.26 0 100.504 18.808 138.662 52.959 3.293 2.948 8.35 2.667 11.296-.625 2.947-3.292 2.667-8.35-.625-11.296C364.237 52.256 311.203 32 256 32c-59.829 0-116.08 23.301-158.389 65.611C55.301 139.921 32 196.171 32 256c0 51.239 17.744 101.328 49.963 141.038 1.581 1.949 3.889 2.96 6.217 2.96 1.771 0 3.553-.585 5.036-1.788 3.431-2.784 3.956-7.822 1.172-11.253C64.474 350.088 48 303.58 48 256z"/>
  <path d="M340.086 367.902h42.906c4.418 0 8-3.582 8-8C390.992 232.031 287.407 128 160.083 128c-4.418 0-8 3.582-8 8v42.918c0 4.418 3.582 8 8 8 94.843 0 172.003 77.6 172.003 172.983 0 4.419 3.582 8.001 8 8.001zM168.083 171.087v-26.94c112.167 4.141 202.652 95.066 206.763 207.754H347.92c-4.07-97.843-82.508-176.693-179.837-180.814z"/>
  <path d="M256.296 359.846c0 4.418 3.582 8 8 8h42.905c4.418 0 8-3.582 8-8 0-85.879-69.61-155.748-155.173-155.748-4.418 0-8 3.582-8 8v42.905c0 4.418 3.582 8 8 8 25.728 0 49.883 10.05 68.022 28.306 18.215 18.292 28.246 42.632 28.246 68.537zm-88.268-139.52c70.396 4.024 126.954 60.829 130.948 131.52H272.02c-1.878-27.151-13.298-52.41-32.626-71.82-19.269-19.392-44.365-30.85-71.366-32.743v-26.957z"/>
  <path d="M152 329.926c0 20.809 16.916 37.737 37.709 37.737 20.808 0 37.737-16.929 37.737-37.737 0-20.8-16.929-37.722-37.737-37.722-20.793 0-37.709 16.922-37.709 37.722zm59.446 0c0 11.986-9.751 21.737-21.737 21.737-11.97 0-21.709-9.751-21.709-21.737 0-11.978 9.739-21.722 21.709-21.722 11.986 0 21.737 9.745 21.737 21.722z"/>
</svg>
