<svg viewBox="0 0 512 512">
  <path d="M273.44 309.266l33.529 55.968c.137.229.285.45.444.663 1.855 2.495 8.543 10.634 16.698 10.634 7.318 0 13.49-4.852 14.653-5.824.54-.451 1.018-.972 1.421-1.549l26.532-37.9c.157-.225.303-.457.436-.696.606-1.09 3.637-6.823 3.73-12.718.142-8.596-7.28-13.909-14.884-15.468l-62.328-20.017c-.122-.04-.245-.076-.369-.109-1.088-.292-10.84-2.65-18.001 4.597-8.135 8.195-2.888 20.308-2.262 21.662.12.258.254.511.401.757zm13.384-11.287c.604-.403 1.777-.354 2.334-.266l62.405 20.042c.337.108.611.181.959.244.701.14 1.568.445 2.197.75-.286 1.229-.885 2.733-1.395 3.744l-25.508 36.438c-1.048.701-2.389 1.367-3.278 1.552-1.015-.575-2.847-2.305-4.08-3.866l-33.014-55.109c-.381-.996-.755-2.732-.62-3.529zM287.018 276.327c2.181 0 3.799-.257 4.262-.34.282-.05.561-.116.836-.196l62.635-18.299c.262-.077.521-.167.774-.27 2.874-1.17 12.41-5.602 14.496-13.526 1.813-7.022-1.274-14.216-1.912-15.586-.303-.65-.691-1.257-1.155-1.804l-29.629-34.907c-1.463-2.107-5.867-7.376-13.686-8.048-10.183-.875-15.893 8.259-17.179 10.593l-35.251 55.44c-.077.121-.15.244-.221.369-.551.979-5.233 9.816-.073 18.555 4.007 6.811 11.377 8.019 16.103 8.019zm-2.078-18.72l35.18-55.328c.138-.217.265-.44.381-.669.297-.583 1.343-1.911 1.987-2.288.817.163 1.391.802 1.587 1.049.246.481.357.563.751 1.027l29.086 34.267c.417 1.214.725 2.701.681 3.593-.804.843-2.951 2.197-4.785 3.008l-61.661 18.015c-1.047.115-2.798.039-3.534-.287-.244-.707.097-1.85.327-2.387zM264.95 311.426c-.041-1.115-.66-11.032-9.696-15.754-10.191-5.215-20.172 3.268-21.277 4.252-.209.186-.408.383-.596.59l-43.708 48.081c-.183.201-.355.411-.517.63-1.84 2.492-7.657 11.227-5.267 18.991 1.849 5.993 5.247 10.011 10.693 12.647.348.168.707.311 1.075.427l43.874 13.859c.249.079.501.145.756.199.736.156 3.354.655 6.565.655 2.09 0 4.43-.211 6.666-.868 8.235-2.388 11.152-10.977 10.438-18.644l.998-64.648c.002-.138.001-.278-.004-.417zm-16.953 66.284c.068.69.028 1.584-.079 2.254-1.269.102-2.916-.026-4.017-.214l-42.811-13.524c-.758-.411-1.262-.879-1.744-2.223.228-1.097 1.351-3.361 2.483-4.995l43.036-47.342c.848-.661 2.419-1.535 3.236-1.643.5.45.769 1.472.848 1.997l-.999 64.702c-.005.355.005.637.047.988zM154.901 231.434c-4.256 2.48-9.436 7.689-10.034 14.285l-3.635 44.896c-.173 2.384-.504 10.563 2.494 15.821 2.041 3.594 6.412 6.83 12.956 6.83 2.505 0 5.33-.475 8.463-1.585l64.728-14.291c.981-.217 1.857-.581 2.69-1.142.207-.124.437-.227.671-.342 2.933-1.443 9.801-4.824 10.137-17.076.302-11.529-11.078-17.589-12.69-18.388l-55.853-28.215c-.183-.092-.369-.177-.558-.255-2.811-1.16-12.525-4.623-19.369-.538zm68.632 43.323c1.966 1.007 3.864 2.944 3.845 3.646-.045 1.632-.267 2.427-.375 2.722-.212.121-.562.293-.834.427-.292.144-.613.302-.955.482l-64.033 14.137c-.367.081-.728.188-1.081.32-.656.246-1.797.516-2.752.635-.2-1.475-.279-3.59-.163-5.285l3.599-44.459c.224-.432.89-1.248 1.817-1.893 1.099-.041 3.539.494 5.336 1.183l55.596 28.085zM229.632 243.423c.217.295.454.576.709.839.747.771 6.687 6.6 15.234 6.6 1.451 0 2.979-.168 4.567-.558 12.43-3.065 14.385-17.771 14.567-19.438.033-.303.049-.607.047-.913l-.494-89.167c-.001-.252-.015-.505-.04-.757-.354-3.509-2.108-15.324-9.889-20.043-8.28-4.987-13.348-4.388-17.59-3-.093.031-.184.062-.271.089-.452.084-.895.207-1.326.366l-51.915 19.271c-1.608.56-7.986 3.099-11.827 9.245-5.031 8.004-.841 17.877 4.367 24.035l53.861 73.431zm-41.128-91.603c.1-.031.071-.024.204-.074l51.437-19.093c.625-.148 1.155-.322 1.581-.462.219-.071.518-.169.555-.182.01 0 1.016.034 3.586 1.554.889 1.042 2.027 4.725 2.4 7.74l.489 88.193c-.331 2.053-1.6 5.064-2.432 5.269-1.699.413-3.552-.885-4.274-1.468l-53.551-73.01c-.127-.173-.261-.341-.401-.503-1.284-1.483-2.851-4.322-2.957-5.59.864-1.156 2.569-2.071 3.363-2.374z"/>
  <path d="M437.022 74.984C388.67 26.63 324.381 0 256 0 187.624 0 123.338 26.63 74.984 74.984S0 187.624 0 256c0 68.388 26.63 132.678 74.984 181.028C123.335 485.375 187.621 512 256 512c68.385 0 132.673-26.625 181.021-74.972C485.372 388.679 512 324.389 512 256c0-68.377-26.628-132.664-74.978-181.016zm-11.314 350.73C380.381 471.039 320.111 496 256 496c-64.106 0-124.374-24.961-169.703-70.286C40.965 380.386 16 320.113 16 256c0-64.102 24.965-124.37 70.297-169.703C131.63 40.965 191.898 16 256 16c64.108 0 124.378 24.965 169.708 70.297C471.037 131.628 496 191.896 496 256c0 64.115-24.963 124.387-70.292 169.714z"/>
  <path d="M430.038 114.969c-2.783-3.432-7.821-3.957-11.253-1.172-3.431 2.784-3.956 7.822-1.172 11.252C447.526 161.919 464 208.426 464 256c0 55.567-21.635 107.803-60.919 147.085C363.797 442.367 311.563 464 256 464c-51.26 0-100.505-18.807-138.663-52.956-3.292-2.946-8.35-2.665-11.296.626-2.946 3.292-2.666 8.35.626 11.296C147.763 459.745 200.797 480 256 480c59.837 0 116.089-23.297 158.394-65.601C456.701 372.095 480 315.84 480 256c0-51.233-17.744-101.319-49.962-141.031zM48 256c0-114.691 93.309-208 208-208 51.26 0 100.504 18.808 138.662 52.959 3.293 2.948 8.351 2.667 11.296-.625 2.947-3.292 2.667-8.35-.625-11.296C364.237 52.256 311.203 32 256 32c-59.829 0-116.08 23.301-158.389 65.611C55.301 139.921 32 196.171 32 256c0 51.239 17.744 101.328 49.963 141.038 1.581 1.949 3.889 2.96 6.217 2.96 1.771 0 3.553-.585 5.036-1.788 3.431-2.784 3.956-7.822 1.172-11.253C64.474 350.088 48 303.58 48 256z"/>
</svg>
