<?xml version="1.0"?>
<svg xmlns="http://www.w3.org/2000/svg" xmlns:xlink="http://www.w3.org/1999/xlink" version="1.1" viewBox="0 0 252 252" width="50" height="50"><g fill="none" fill-rule="nonzero" stroke="none" stroke-width="1" stroke-linecap="butt" stroke-linejoin="miter" stroke-miterlimit="10" stroke-dasharray="" stroke-dashoffset="0" font-family="none" font-weight="none" font-size="none" text-anchor="none" style="mix-blend-mode: normal"><path d="M0,252v-252h252v252z" fill="none"/><path d="M0,126c0,-69.58788 56.41212,-126 126,-126c69.58788,0 126,56.41212 126,126c0,69.58788 -56.41212,126 -126,126c-69.58788,0 -126,-56.41212 -126,-126zM126,236.88c61.23733,0 110.88,-49.64267 110.88,-110.88c0,-61.23733 -49.64267,-110.88 -110.88,-110.88c-61.23733,0 -110.88,49.64267 -110.88,110.88c0,61.23733 49.64267,110.88 110.88,110.88z" fill="#000000"/><g fill="#000000"><g id="surface1"><path d="M90.35157,56.59648l9.49543,31.15168v20.32356h7.99615v-21.32308l9.16226,-30.15216h-7.99615l-4.9976,20.49014h-0.49976l-5.16418,-20.49014zM127.16719,69.09047c-3.20679,0 -5.76806,0.91623 -7.66298,2.66538c-1.89492,1.72834 -2.83197,4.06055 -2.83197,6.99663v19.65721c0,3.22762 0.9787,5.93464 2.83197,7.82957c1.8741,1.91575 4.22713,2.83197 7.32981,2.83197c3.20679,0 5.83053,-0.9787 7.66298,-2.83197c1.83245,-1.85327 2.66538,-4.41454 2.66538,-7.66298v-19.65721c0,-2.89444 -0.95787,-5.16418 -2.83197,-6.99663c-1.85327,-1.85327 -4.22713,-2.83197 -7.16322,-2.83197zM143.1595,70.08999v31.81803c0,2.26974 0.49976,3.87314 1.33269,4.9976c0.83293,1.12446 2.04069,1.66587 3.6649,1.66587c1.31187,0 2.60291,-0.37482 3.99808,-1.16611c1.41599,-0.81211 2.87362,-1.95739 4.16466,-3.49832v4.16466h6.99663v-37.98173h-6.99663v28.81947c-0.66635,0.81211 -1.37434,1.47846 -2.16563,1.99904c-0.79128,0.54141 -1.47846,0.83293 -1.99904,0.83293c-0.64552,0 -1.20775,-0.10412 -1.49928,-0.49976c-0.31235,-0.39564 -0.33317,-1.12446 -0.33317,-1.99904v-29.15264zM126.83402,75.75393c0.93705,0 1.76998,0.16659 2.33221,0.66635c0.58305,0.52058 0.83293,1.18693 0.83293,1.99904v20.82332c0,1.02034 -0.2707,1.76998 -0.83293,2.33221c-0.56223,0.58305 -1.37434,0.83293 -2.33221,0.83293c-0.93705,0 -1.66587,-0.2707 -2.16562,-0.83293c-0.52058,-0.56223 -0.66635,-1.29104 -0.66635,-2.33221v-20.82332c0,-0.81211 0.29153,-1.47846 0.83293,-1.99904c0.54141,-0.49976 1.14528,-0.66635 1.99904,-0.66635zM126.00109,115.90129c-13.82668,-0.02082 -27.38266,0.10412 -40.64712,0.66635c-9.26637,0 -16.82524,7.47557 -16.82524,16.65865c-0.56223,7.26734 -0.85375,14.5555 -0.83293,21.82284c-0.02082,7.26734 0.2707,14.5555 0.83293,21.82284c0,9.18308 7.55887,16.65865 16.82524,16.65865c13.26445,0.54141 26.82043,0.68717 40.64712,0.66635c13.8475,0.04165 27.40349,-0.12494 40.64712,-0.66635c9.26637,0 16.82524,-7.47557 16.82524,-16.65865c0.56223,-7.26734 0.85375,-14.5555 0.83293,-21.82284c0.04165,-7.26734 -0.2707,-14.5555 -0.83293,-21.82284c0,-9.18308 -7.55887,-16.65865 -16.82524,-16.65865c-13.24363,-0.56223 -26.79961,-0.68717 -40.64712,-0.66635zM76.69147,127.72893h24.48822c0.43729,0 0.83293,0.39564 0.83293,0.83293v7.49639c0,0.43729 -0.39564,0.83293 -0.83293,0.83293h-7.49639v43.14591c0,0.43729 -0.22906,0.83293 -0.66635,0.83293h-7.99615c-0.43729,0 -0.83293,-0.39564 -0.83293,-0.83293v-43.14591h-7.49639c-0.43729,0 -0.66635,-0.39564 -0.66635,-0.83293v-7.49639c0,-0.43729 0.22906,-0.83293 0.66635,-0.83293zM128.16671,127.72893h7.16322c0.43729,0 0.83293,0.39564 0.83293,0.83293v14.49303c0.58305,-0.5414 1.20776,-0.9787 1.83245,-1.33269c1.20776,-0.66635 2.43633,-0.99952 3.6649,-0.99952c2.4988,0 4.33125,0.99952 5.66394,2.83197c1.27022,1.76998 1.99904,4.24796 1.99904,7.49639v21.15649c0,2.87362 -0.60387,5.10171 -1.83245,6.66346c-1.27022,1.62422 -3.16514,2.4988 -5.49736,2.4988c-1.47846,0 -2.79032,-0.39564 -3.99808,-0.99952c-0.64552,-0.33317 -1.2494,-0.64552 -1.83245,-1.16611v0.83293c0,0.43729 -0.39564,0.83293 -0.83293,0.83293h-7.16322c-0.43729,0 -0.83293,-0.39564 -0.83293,-0.83293v-51.47524c0,-0.43729 0.39564,-0.83293 0.83293,-0.83293zM164.48258,140.22292c3.45667,0 6.28864,1.08281 8.16274,3.16514c1.8741,2.08233 2.83197,5.03925 2.83197,8.82909v9.82861c0,0.43729 -0.39564,0.66635 -0.83293,0.66635h-12.66058v6.49688c0,2.33221 0.24988,3.24844 0.49976,3.6649c0.20824,0.33317 0.56223,0.83293 1.66587,0.83293c0.8954,0 1.5201,-0.24988 1.83245,-0.66635c0.14576,-0.22906 0.49976,-1.06199 0.49976,-3.83149v-2.66538c0,-0.43729 0.39564,-0.83293 0.83293,-0.83293h7.32981c0.43729,0 0.83293,0.39564 0.83293,0.83293v2.83197c0,4.10219 -1.10363,7.22569 -2.99856,9.32885c-1.89492,2.12398 -4.74772,3.16514 -8.49591,3.16514c-3.3942,0 -6.03876,-1.06199 -7.99615,-3.33173c-1.93657,-2.2281 -2.99856,-5.30995 -2.99856,-9.16226v-17.15841c0,-3.49832 1.02034,-6.26782 3.16514,-8.49591c2.1448,-2.2281 4.95595,-3.49832 8.32933,-3.49832zM101.17969,141.22244h6.99663c0.43729,0 0.83293,0.39564 0.83293,0.83293v29.15264c0,0.95788 0.06247,1.35351 0.16659,1.49928c0.04165,0.06247 0.22906,0.33317 0.83293,0.33317c0.20824,0 0.66635,-0.08329 1.49928,-0.66635c0.68717,-0.45811 1.29105,-1.02034 1.83245,-1.66587v-28.65288c0,-0.43729 0.39564,-0.83293 0.83293,-0.83293h7.16322c0.43729,0 0.66635,0.39564 0.66635,0.83293v37.98173c0,0.43729 -0.22906,0.83293 -0.66635,0.83293h-7.16322c-0.43729,0 -0.83293,-0.39564 -0.83293,-0.83293v-2.16563c-0.93705,0.91623 -1.85327,1.60339 -2.83197,2.16563c-1.54092,0.87458 -2.99856,1.33269 -4.49784,1.33269c-1.89492,0 -3.35255,-0.64552 -4.33125,-1.99904c-0.93705,-1.27022 -1.33269,-3.08185 -1.33269,-5.49736v-31.81803c0,-0.43729 0.39564,-0.83293 0.83293,-0.83293zM137.99532,148.38566c-0.2707,0.04165 -0.5414,0.18741 -0.83293,0.33317c-0.33317,0.16659 -0.66635,0.47894 -0.99952,0.83293v22.98894c0.41647,0.43729 0.77046,0.81211 1.16611,0.99952c0.43729,0.20824 0.85375,0.33317 1.33269,0.33317c0.8954,0 1.2494,-0.37482 1.33269,-0.49976c0.20824,-0.2707 0.33317,-0.8954 0.33317,-2.16563v-19.65721c0,-1.08281 -0.10412,-1.97822 -0.49976,-2.4988c-0.39564,-0.52058 -1.02034,-0.81211 -1.83245,-0.66635zM164.31599,148.55225c-0.85375,0 -1.47846,0.18741 -1.83245,0.66635c-0.24988,0.354 -0.49976,1.22858 -0.49976,2.99856v2.99856h4.49784v-2.99856c0,-1.74916 -0.22906,-2.60291 -0.49976,-2.99856c-0.33317,-0.45811 -0.85375,-0.66635 -1.66587,-0.66635z"/></g></g><path d="M126,252c-69.58788,0 -126,-56.41212 -126,-126v0c0,-69.58788 56.41212,-126 126,-126v0c69.58788,0 126,56.41212 126,126v0c0,69.58788 -56.41212,126 -126,126z" fill="none"/><path d="M126,241.92c-64.02085,0 -115.92,-51.89915 -115.92,-115.92v0c0,-64.02085 51.89915,-115.92 115.92,-115.92h0c64.02085,0 115.92,51.89915 115.92,115.92v0c0,64.02085 -51.89915,115.92 -115.92,115.92z" fill="none"/><path d="M126,252c-69.58788,0 -126,-56.41212 -126,-126v0c0,-69.58788 56.41212,-126 126,-126v0c69.58788,0 126,56.41212 126,126v0c0,69.58788 -56.41212,126 -126,126z" fill="none"/><path d="M126,241.92c-64.02085,0 -115.92,-51.89915 -115.92,-115.92v0c0,-64.02085 51.89915,-115.92 115.92,-115.92h0c64.02085,0 115.92,51.89915 115.92,115.92v0c0,64.02085 -51.89915,115.92 -115.92,115.92z" fill="none"/><path d="M126,252c-69.58788,0 -126,-56.41212 -126,-126v0c0,-69.58788 56.41212,-126 126,-126v0c69.58788,0 126,56.41212 126,126v0c0,69.58788 -56.41212,126 -126,126z" fill="none"/><path d="M126,236.88c-61.23733,0 -110.88,-49.64267 -110.88,-110.88v0c0,-61.23733 49.64267,-110.88 110.88,-110.88v0c61.23733,0 110.88,49.64267 110.88,110.88v0c0,61.23733 -49.64267,110.88 -110.88,110.88z" fill="none"/></g></svg>
